<svg width="30" height="30" viewBox="0 0 30 30" fill="none" xmlns="http://www.w3.org/2000/svg">
<g id="&#240;&#159;&#166;&#134; icon &#34;add&#34;">
<path id="Vector" d="M21.2835 0H8.71354C3.25353 0 -0.00146484 3.255 -0.00146484 8.715V21.27C-0.00146484 26.745 3.25353 30 8.71354 30H21.2685C26.7285 30 29.9835 26.745 29.9835 21.285V8.715C29.9985 3.255 26.7435 0 21.2835 0ZM23.9985 16.125H16.1235V24C16.1235 24.615 15.6135 25.125 14.9985 25.125C14.3835 25.125 13.8735 24.615 13.8735 24V16.125H5.99854C5.38354 16.125 4.87354 15.615 4.87354 15C4.87354 14.385 5.38354 13.875 5.99854 13.875H13.8735V6C13.8735 5.385 14.3835 4.875 14.9985 4.875C15.6135 4.875 16.1235 5.385 16.1235 6V13.875H23.9985C24.6135 13.875 25.1235 14.385 25.1235 15C25.1235 15.615 24.6135 16.125 23.9985 16.125Z" fill="white"/>
</g>
</svg>
