<svg width="50" height="50" viewBox="0 0 50 50" fill="none" xmlns="http://www.w3.org/2000/svg">
<g id="&#240;&#159;&#166;&#134; icon &#34;add&#34;">
<g id="Group">
<path id="Vector" d="M37.1959 15.1699L15.1971 37.2335C14.4454 37.9873 13.1988 37.9873 12.4472 37.2335C11.6956 36.4796 11.6956 35.2294 12.4472 34.4755L34.4461 12.412C35.1977 11.6582 36.4443 11.6582 37.1959 12.412C37.9476 13.1658 37.9476 14.4161 37.1959 15.1699Z" fill="white"/>
<path id="Vector_2" d="M37.1959 37.2325C36.4443 37.9864 35.1977 37.9864 34.4461 37.2325L12.4472 15.169C11.6956 14.4152 11.6956 13.1649 12.4472 12.4111C13.1988 11.6572 14.4454 11.6572 15.1971 12.4111L37.1959 34.4746C37.9476 35.2284 37.9476 36.4787 37.1959 37.2325Z" fill="white"/>
</g>
</g>
</svg>
