<svg width="127" height="125" viewBox="0 0 127 125" fill="none" xmlns="http://www.w3.org/2000/svg">
<g id="Group 237">
<path id="Ellipse 305" d="M123.919 63.1133V60.9996H121.805H65.5115V34.392L65.5115 5.14844V3.03473H63.3978C51.3738 3.03473 39.6841 7.08177 29.7878 13.5851C19.8358 20.125 12.0738 29.4241 7.48874 40.3105C2.90355 51.1974 1.70328 63.1791 4.04127 74.7389C6.37921 86.2984 12.1491 96.9117 20.6157 105.238C29.0818 113.565 39.8642 119.231 51.5974 121.527C63.3304 123.822 75.4923 122.644 86.5467 118.141C97.6014 113.638 107.056 106.009 113.71 96.2146C120.364 86.4198 123.919 74.9004 123.919 63.1133Z" stroke="#6764FF" stroke-width="4.22741"/>
<line id="Line 81" x1="64.9827" y1="5.14844" x2="64.9827" y2="62.8522" stroke="white" stroke-width="3.17056"/>
<line id="Line 82" x1="118.619" y1="61.8178" x2="63.3979" y2="61.8178" stroke="white" stroke-width="4.22741"/>
</g>
</svg>
