<svg width="25" height="26" viewBox="0 0 25 26" fill="none" xmlns="http://www.w3.org/2000/svg">
<g id="&#240;&#159;&#166;&#134; icon &#34;home&#34;">
<g id="Group">
<path id="Vector" d="M12.5028 20.9928C12.0262 20.9928 11.6309 20.5907 11.6309 20.1057V16.5571C11.6309 16.0721 12.0262 15.6699 12.5028 15.6699C12.9795 15.6699 13.3748 16.0721 13.3748 16.5571V20.1057C13.3748 20.5907 12.9795 20.9928 12.5028 20.9928Z" fill="white"/>
<path id="Vector_2" d="M19.0144 25.5H5.99312C3.87715 25.5 1.94721 23.844 1.59842 21.7266L0.0521357 12.2992C-0.203641 10.8324 0.505557 8.95162 1.65655 8.01715L9.7135 1.45223C11.2714 0.174731 13.7245 0.18656 15.294 1.46406L23.351 8.01715C24.4903 8.95162 25.1879 10.8324 24.9554 12.2992L23.4091 21.7148C23.0603 23.8085 21.0839 25.5 19.0144 25.5ZM12.4921 2.28024C11.8759 2.28024 11.2597 2.4695 10.8063 2.83619L2.74941 9.41294C2.09835 9.94523 1.6333 11.1755 1.77281 12.0153L3.3191 21.4309C3.52837 22.6729 4.74912 23.7257 5.99312 23.7257H19.0144C20.2584 23.7257 21.4792 22.6729 21.6884 21.4191L23.2347 12.0035C23.3626 11.1755 22.8976 9.92158 22.2581 9.40111L14.2012 2.84802C13.7361 2.4695 13.1083 2.28024 12.4921 2.28024Z" fill="white"/>
</g>
</g>
</svg>
