<svg width="90" height="89" viewBox="0 0 90 89" fill="none" xmlns="http://www.w3.org/2000/svg">
<g id="Group 243">
<ellipse id="Ellipse 303" cx="45.1154" cy="44.7066" rx="44.5294" ry="43.9293" fill="#5E42BB" fill-opacity="0.8"/>
<g id="Group">
<path id="Vector" d="M31.1328 38.851V34.4581C31.1328 27.1878 33.3593 21.2793 44.4916 21.2793C55.624 21.2793 57.8505 27.1878 57.8505 34.4581V38.851" stroke="white" stroke-opacity="0.8" stroke-width="3" stroke-linecap="round" stroke-linejoin="round"/>
<path id="Vector_2" d="M55.6315 65.2091H33.3667C24.4608 65.2091 22.2344 63.0127 22.2344 54.2268V49.8339C22.2344 41.048 24.4608 38.8516 33.3667 38.8516H55.6315C64.5374 38.8516 66.7638 41.048 66.7638 49.8339V54.2268C66.7638 63.0127 64.5374 65.2091 55.6315 65.2091Z" stroke="white" stroke-opacity="0.8" stroke-width="3" stroke-linecap="round" stroke-linejoin="round"/>
<g id="Group_2">
<path id="Vector_3" d="M53.3984 52.0273H53.4175" stroke="white" stroke-opacity="0.8" stroke-width="3" stroke-linecap="round" stroke-linejoin="round"/>
<path id="Vector_4" d="M44.4922 52.0273H44.5115" stroke="white" stroke-opacity="0.8" stroke-width="3" stroke-linecap="round" stroke-linejoin="round"/>
<path id="Vector_5" d="M35.5859 52.0273H35.6052" stroke="white" stroke-opacity="0.8" stroke-width="3" stroke-linecap="round" stroke-linejoin="round"/>
</g>
</g>
</g>
</svg>
