<svg width="26" height="29" viewBox="0 0 26 29" fill="none" xmlns="http://www.w3.org/2000/svg">
<g id="Frame">
<g id="Group 34468">
<path id="Vector" d="M6.35156 12V9.5C6.35156 5.3625 7.43852 2 12.8733 2C18.3081 2 19.395 5.3625 19.395 9.5V12" stroke="#5E42BB" stroke-width="3" stroke-linecap="round" stroke-linejoin="round"/>
<path id="Vector_2" d="M18.3063 27H7.43674C3.08891 27 2.00195 25.75 2.00195 20.75V18.25C2.00195 13.25 3.08891 12 7.43674 12H18.3063C22.6541 12 23.7411 13.25 23.7411 18.25V20.75C23.7411 25.75 22.6541 27 18.3063 27Z" stroke="#5E42BB" stroke-width="3" stroke-linecap="round" stroke-linejoin="round"/>
<path id="Vector_3" d="M13.0533 22.417C14.5541 22.417 15.7707 21.0179 15.7707 19.292C15.7707 17.5661 14.5541 16.167 13.0533 16.167C11.5526 16.167 10.3359 17.5661 10.3359 19.292C10.3359 21.0179 11.5526 22.417 13.0533 22.417Z" stroke="#5E42BB" stroke-width="3" stroke-linecap="round" stroke-linejoin="round"/>
</g>
</g>
</svg>
