<svg width="38" height="32" viewBox="0 0 38 32" fill="none" xmlns="http://www.w3.org/2000/svg">
<g id="&#240;&#159;&#166;&#134; icon &#34;message&#34;">
<g id="Group">
<path id="Vector" d="M13.1489 25.795H12.2844C5.36857 25.795 1.91064 24.4207 1.91064 17.5494V10.6782C1.91064 5.18113 5.36857 2.43262 12.2844 2.43262H26.1161C33.0319 2.43262 36.4899 5.18113 36.4899 10.6782V17.5494C36.4899 23.0465 33.0319 25.795 26.1161 25.795H25.2516C24.7156 25.795 24.1969 26.0011 23.8684 26.3447L21.275 29.0932C20.1339 30.3025 18.2666 30.3025 17.1255 29.0932L14.5321 26.3447C14.2554 26.0423 13.6157 25.795 13.1489 25.795Z" stroke="#6764FF" stroke-width="3" stroke-miterlimit="10" stroke-linecap="round" stroke-linejoin="round"/>
<g id="Group_2">
<path id="Vector_2" d="M26.1104 14.8008H26.1257" stroke="#6764FF" stroke-width="3" stroke-linecap="round" stroke-linejoin="round"/>
<path id="Vector_3" d="M19.1929 14.8008H19.2084" stroke="#6764FF" stroke-width="3" stroke-linecap="round" stroke-linejoin="round"/>
<path id="Vector_4" d="M12.2754 14.8008H12.2909" stroke="#6764FF" stroke-width="3" stroke-linecap="round" stroke-linejoin="round"/>
</g>
</g>
</g>
</svg>
