<svg width="28" height="30" viewBox="0 0 28 30" fill="none" xmlns="http://www.w3.org/2000/svg">
<g id="&#240;&#159;&#166;&#134; icon &#34;notification&#34;">
<g id="Group">
<path id="Vector" d="M14.3422 26.8378C10.7533 26.8378 7.16437 26.3246 3.76031 25.2983C2.46647 24.896 1.48068 24.0777 1.04939 23.0098C0.602706 21.9418 0.756736 20.7629 1.46527 19.7088L3.23661 17.0597C3.60629 16.5049 3.94515 15.3953 3.94515 14.7434V10.7351C3.94515 5.57557 8.61225 1.37305 14.3422 1.37305C20.0721 1.37305 24.7392 5.57557 24.7392 10.7351V14.7434C24.7392 15.3814 25.0781 16.5049 25.4477 17.0735L27.2037 19.7088C27.866 20.7074 27.9892 21.914 27.5425 23.0098C27.0959 24.1055 26.1255 24.9376 24.9086 25.2983C21.52 26.3246 17.9311 26.8378 14.3422 26.8378ZM14.3422 3.4535C9.8907 3.4535 6.2556 6.71288 6.2556 10.7351V14.7434C6.2556 15.7559 5.79351 17.2538 5.2236 18.1276L3.45226 20.7767C3.11339 21.2899 3.02097 21.8308 3.22121 22.2885C3.40605 22.7601 3.86814 23.1207 4.49966 23.3149C10.9381 25.2566 17.7617 25.2566 24.2001 23.3149C24.7546 23.1485 25.1859 22.774 25.3861 22.2747C25.5864 21.7754 25.5402 21.2344 25.2321 20.7767L23.4608 18.1276C22.8754 17.2261 22.4288 15.742 22.4288 14.7295V10.7351C22.4288 6.71288 18.8091 3.4535 14.3422 3.4535Z" fill="#6764FF"/>
<path id="Vector_2" d="M17.2064 3.82804C17.0986 3.82804 16.9908 3.81417 16.883 3.78643C16.4363 3.67547 16.005 3.59225 15.5891 3.53677C14.2799 3.38421 13.0168 3.46743 11.8308 3.78643C11.3995 3.91126 10.9375 3.78643 10.6448 3.49516C10.3522 3.2039 10.2597 2.78781 10.4292 2.41333C11.0607 0.95701 12.6009 0 14.3569 0C16.1128 0 17.6531 0.94314 18.2846 2.41333C18.4387 2.78781 18.3616 3.2039 18.069 3.49516C17.8379 3.71708 17.5145 3.82804 17.2064 3.82804Z" fill="#6764FF"/>
<path id="Vector_3" d="M14.3415 30C12.8166 30 11.3379 29.4452 10.2598 28.4743C9.18155 27.5034 8.56543 26.1719 8.56543 24.7988H10.8759C10.8759 25.6171 11.2455 26.4216 11.8924 27.0041C12.5393 27.5866 13.4327 27.9195 14.3415 27.9195C16.2515 27.9195 17.8072 26.5187 17.8072 24.7988H20.1176C20.1176 27.6699 17.5299 30 14.3415 30Z" fill="#6764FF"/>
</g>
</g>
</svg>
