<svg width="55" height="55" viewBox="0 0 55 55" fill="none" xmlns="http://www.w3.org/2000/svg">
<g id="Group 194">
<g id="Group 182">
<g id="Group 175">
<circle id="Ellipse 283" cx="27.5" cy="27.5" r="27.5" fill="#6764FF"/>
</g>
<g id="Group 34470">
<path id="Vector" d="M38.6111 28.4262H16.3889C15.6296 28.4262 15 27.7966 15 27.0373C15 26.2781 15.6296 25.6484 16.3889 25.6484H38.6111C39.3704 25.6484 40 26.2781 40 27.0373C40 27.7966 39.3704 28.4262 38.6111 28.4262Z" fill="white"/>
<path id="Vector_2" d="M27.4983 40C26.739 40 26.1094 39.3704 26.1094 38.6111V16.3889C26.1094 15.6296 26.739 15 27.4983 15C28.2575 15 28.8872 15.6296 28.8872 16.3889V38.6111C28.8872 39.3704 28.2575 40 27.4983 40Z" fill="white"/>
</g>
</g>
</g>
</svg>
