<svg width="30" height="30" viewBox="0 0 30 30" fill="none" xmlns="http://www.w3.org/2000/svg">
<g id="&#240;&#159;&#166;&#134; icon &#34;profile circle&#34;">
<g id="Group">
<path id="Vector" d="M15.1674 17.1349C15.1395 17.1349 15.0976 17.1349 15.0697 17.1349C15.0279 17.1349 14.9721 17.1349 14.9302 17.1349C11.7627 17.0372 9.39062 14.5674 9.39062 11.5256C9.39062 8.42791 11.9162 5.90234 15.0139 5.90234C18.1116 5.90234 20.6372 8.42791 20.6372 11.5256C20.6232 14.5814 18.2372 17.0372 15.2093 17.1349C15.1814 17.1349 15.1814 17.1349 15.1674 17.1349ZM15 7.9814C13.0465 7.9814 11.4697 9.57209 11.4697 11.5116C11.4697 13.4233 12.9628 14.9721 14.8604 15.0419C14.9023 15.0279 15.0418 15.0279 15.1814 15.0419C17.0511 14.9442 18.5162 13.4093 18.5302 11.5116C18.5302 9.57209 16.9535 7.9814 15 7.9814Z" fill="white"/>
<path id="Vector_2" d="M15.0022 29.9992C11.2487 29.9992 7.66269 28.6039 4.88595 26.0644C4.63478 25.8411 4.52315 25.5062 4.55106 25.1853C4.73246 23.5249 5.76501 21.976 7.48129 20.8318C11.6394 18.0691 18.379 18.0691 22.5231 20.8318C24.2394 21.99 25.272 23.5249 25.4534 25.1853C25.4952 25.5202 25.3696 25.8411 25.1185 26.0644C22.3417 28.6039 18.7557 29.9992 15.0022 29.9992ZM6.74176 24.9062C9.05804 26.8458 11.9743 27.9062 15.0022 27.9062C18.0301 27.9062 20.9464 26.8458 23.2627 24.9062C23.0115 24.0551 22.3417 23.2318 21.351 22.5621C17.9185 20.2737 12.0999 20.2737 8.63943 22.5621C7.64874 23.2318 6.99292 24.0551 6.74176 24.9062Z" fill="white"/>
<path id="Vector_3" d="M15 29.9999C6.72558 29.9999 0 23.2743 0 14.9999C0 6.72555 6.72558 0 15 0C23.2744 0 30 6.72555 30 14.9999C30 23.2743 23.2744 29.9999 15 29.9999ZM15 2.09301C7.88372 2.09301 2.09302 7.88368 2.09302 14.9999C2.09302 22.1162 7.88372 27.9068 15 27.9068C22.1163 27.9068 27.907 22.1162 27.907 14.9999C27.907 7.88368 22.1163 2.09301 15 2.09301Z" fill="white"/>
</g>
</g>
</svg>
