<svg width="19" height="28" viewBox="0 0 19 28" fill="none" xmlns="http://www.w3.org/2000/svg">
<g id="&#240;&#159;&#166;&#134; icon &#34;profile add&#34;">
<g id="Group">
<path id="Vector" d="M17.8284 23.585H12.7805" stroke="white" stroke-width="2" stroke-linecap="round" stroke-linejoin="round"/>
<path id="Vector_2" d="M15.3047 26.1085V21.0605" stroke="white" stroke-width="2" stroke-linecap="round" stroke-linejoin="round"/>
<path id="Vector_3" d="M9.82767 12.6938C9.70147 12.6812 9.55003 12.6812 9.41121 12.6938C6.40766 12.5928 4.02251 10.132 4.02251 7.1032C4.00989 4.01135 6.52123 1.5 9.61313 1.5C12.705 1.5 15.2163 4.01135 15.2163 7.1032C15.2163 10.132 12.8186 12.5928 9.82767 12.6938Z" stroke="white" stroke-width="2" stroke-linecap="round" stroke-linejoin="round"/>
<path id="Vector_4" d="M9.61298 26.5003C7.31617 26.5003 5.03203 25.9198 3.2905 24.7587C0.236501 22.7143 0.236501 19.3827 3.2905 17.3509C6.76095 15.0289 12.4524 15.0289 15.9229 17.3509" stroke="white" stroke-width="2" stroke-linecap="round" stroke-linejoin="round"/>
</g>
</g>
</svg>
