<svg xmlns="http://www.w3.org/2000/svg" width="25" height="22" viewBox="0 0 25 22" fill="none">
<path d="M13.5461 10.0771H7.125" stroke="white" stroke-width="2" stroke-linecap="round" stroke-linejoin="round"/>
<path d="M1.77393 10.0771V5.03062C1.77393 2.80231 3.53973 1 5.7229 1H11.7373C13.9205 1 15.6863 2.38723 15.6863 4.61554" stroke="white" stroke-width="2" stroke-linecap="round" stroke-linejoin="round"/>
<path d="M18.3404 11.2237C17.8053 11.748 17.5484 12.5563 17.7625 13.3865C18.03 14.4023 19.0146 15.0468 20.0419 15.0468H21.0372V16.6306C21.0372 19.0446 19.1216 20.9999 16.7565 20.9999H6.05466C3.68955 20.9999 1.77393 19.0446 1.77393 16.6306V8.98447C1.77393 6.57047 3.68955 4.61523 6.05466 4.61523H16.7565C19.1109 4.61523 21.0372 6.58139 21.0372 8.98447V10.5683H19.8814C19.2821 10.5683 18.7363 10.8086 18.3404 11.2237Z" stroke="white" stroke-width="2" stroke-linecap="round" stroke-linejoin="round"/>
<path d="M23.1781 11.6825V13.9327C23.1781 14.5444 22.6857 15.0468 22.0757 15.0468H20.0102C18.8544 15.0468 17.795 14.1839 17.6987 13.0042C17.6345 12.3161 17.8913 11.6716 18.3407 11.2237C18.7367 10.8087 19.2826 10.5684 19.8819 10.5684H22.0757C22.6857 10.5684 23.1781 11.0708 23.1781 11.6825Z" stroke="white" stroke-width="2" stroke-linecap="round" stroke-linejoin="round"/>
</svg>
